<?xml version="1.0" encoding="utf-8"?>
<!-- Generator: Fusion 360, Shaper Origin Export Add-In, Version 1.7.0  -->
<svg xmlns="http://www.w3.org/2000/svg" xmlns:xlink="http://www.w3.org/1999/xlink" xmlns:shaper="http://www.shapertools.com/namespaces/shaper" shaper:fusionaddin="version:1.7.0" width="19.335cm" height="9.605cm" version="1.1" x="0cm" y="0cm" viewBox="0 0 19.335 9.605" enable-background="new 0 0 19.335 9.605" xml:space="preserve"><path d="M-9.35,-4.1675 L-8.3535372,-4.1675 -8.3535372,-4.485 -9.35,-4.485 -9.35,-4.8025 -4.35,-4.8025 -4.35,-4.485 -5.35,-4.485 -5.35,-4.1675 -4.35,-4.1675 -4.35,-4.05 4.35,-4.05 4.35,-4.1675 5.3464628,-4.1675 5.3464628,-4.485 4.35,-4.485 4.35,-4.8025 9.35,-4.8025 9.35,-4.485 8.35,-4.485 8.35,-4.1675 9.35,-4.1675 9.35,-1.5 9.6675,-1.5 9.6675,1.5 9.35,1.5 9.35,4.1675 8.35,4.1675 8.35,4.485 9.35,4.485 9.35,4.8025 4.35,4.8025 4.35,4.485 5.3464628,4.485 5.3464628,4.1675 4.35,4.1675 4.35,3.85 -4.35,3.85 -4.35,4.1675 -5.35,4.1675 -5.35,4.485 -4.35,4.485 -4.35,4.8025 -9.35,4.8025 -9.35,4.485 -8.3535372,4.485 -8.3535372,4.1675 -9.35,4.1675 -9.35,1.5 -9.6675,1.5 -9.6675,-1.5 -9.35,-1.5 -9.35,-4.1675z" transform="matrix(1,0,0,-1,9.6675,4.8025)" fill="rgb(0,0,0)" stroke-linecap="round" stroke-linejoin="round" /><path d="M-1.85,1.8 L-7.85,1.8 -7.85,3 -1.85,3 -1.85,1.8z" transform="matrix(1,0,0,-1,9.6675,4.8025)" fill="rgb(255,255,255)" stroke="rgb(0,0,0)" stroke-width="0.0010cm" stroke-linecap="round" stroke-linejoin="round" /></svg>