<?xml version="1.0" encoding="utf-8"?>
<!-- Generator: Fusion 360, Shaper Origin Export Add-In, Version 1.7.0  -->
<svg xmlns="http://www.w3.org/2000/svg" xmlns:xlink="http://www.w3.org/1999/xlink" xmlns:shaper="http://www.shapertools.com/namespaces/shaper" shaper:fusionaddin="version:1.7.0" width="8.77cm" height="7cm" version="1.1" x="0cm" y="0cm" viewBox="0 0 8.77 7" enable-background="new 0 0 8.77 7" xml:space="preserve"><path d="M4.385,3.5 L-4.385,3.5 -4.385,-3.4999925 -3.75,-3.4999925 -3.75,-3.5 3.75,-3.5 3.75,-3.4999925 4.385,-3.4999925 4.385,3.5z" transform="matrix(1,0,0,-1,4.385,3.5)" fill="rgb(0,0,0)" stroke-linecap="round" stroke-linejoin="round" /><path d="M-3.75,3 L-3.75,-3 -4.0675,-3 -4.0675,3 -3.75,3z" transform="matrix(1,0,0,-1,4.385,3.5)" fill="rgb(255,255,255)" stroke="rgb(0,0,0)" stroke-width="0.0010cm" stroke-linecap="round" stroke-linejoin="round" /><path d="M4.0675,1 L3.75,1 3.75,3 4.0675,3 4.0675,1z" transform="matrix(1,0,0,-1,4.385,3.5)" fill="rgb(255,255,255)" stroke="rgb(0,0,0)" stroke-width="0.0010cm" stroke-linecap="round" stroke-linejoin="round" /><path d="M3.75,-3 L3.75,-1 4.0675,-1 4.0675,-3 3.75,-3z" transform="matrix(1,0,0,-1,4.385,3.5)" fill="rgb(255,255,255)" stroke="rgb(0,0,0)" stroke-width="0.0010cm" stroke-linecap="round" stroke-linejoin="round" /></svg>