<?xml version="1.0" encoding="utf-8"?>
<!-- Generator: Fusion 360, Shaper Origin Export Add-In, Version 1.7.0  -->
<svg xmlns="http://www.w3.org/2000/svg" xmlns:xlink="http://www.w3.org/1999/xlink" xmlns:shaper="http://www.shapertools.com/namespaces/shaper" shaper:fusionaddin="version:1.7.0" width="19.335cm" height="9.605cm" version="1.1" x="0cm" y="0cm" viewBox="0 0 19.335 9.605" enable-background="new 0 0 19.335 9.605" xml:space="preserve"><path d="M6.77,4.1675 L5.77,4.1675 5.77,4.485 6.77,4.485 6.77,4.8025 2.77,4.8025 2.77,4.485 4.7665229,4.485 4.7665229,4.1675 2.77,4.1675 2.77,3.85 1.25,3.85 1.25,4.8025 -1.25,4.8025 -1.25,3.85 -6.35,3.85 -6.35,4.8025 -9.35,4.8025 -9.35,4.485 -7.3534771,4.485 -7.3534771,4.1675 -9.35,4.1675 -9.35,2.25 -9.6675,2.25 -9.6675,-2.25 -9.35,-2.25 -9.35,-4.1675 -7.3534771,-4.1675 -7.3534771,-4.485 -9.35,-4.485 -9.35,-4.8025 -6.35,-4.8025 -6.35,-3.85 -1.25,-3.85 -1.25,-4.8025 1.25,-4.8025 1.25,-3.85 2.77,-3.85 2.77,-4.1675 4.7665229,-4.1675 4.7665229,-4.485 2.77,-4.485 2.77,-4.8025 6.77,-4.8025 6.77,-4.485 5.77,-4.485 5.77,-4.1675 6.77,-4.1675 6.77,-3.85 9.35,-3.85 9.35,-2.25 9.6675,-2.25 9.6675,2.25 9.35,2.25 9.35,3.85 6.77,3.85 6.77,4.1675z" transform="matrix(1,0,0,-1,9.6675,4.8025)" fill="rgb(0,0,0)" stroke-linecap="round" stroke-linejoin="round" /><path d="M0.92,-0 a3.85,3.85 0 1,1 7.7,0 a3.85,3.85 0 1,1 -7.7,0z" transform="matrix(1,0,0,-1,9.6675,4.8025)" fill="rgb(255,255,255)" stroke="rgb(0,0,0)" stroke-width="0.0010cm" stroke-linecap="round" stroke-linejoin="round" /></svg>