<?xml version="1.0" encoding="utf-8"?>
<!-- Generator: Fusion 360, Shaper Origin Export Add-In, Version 1.7.0  -->
<svg xmlns="http://www.w3.org/2000/svg" xmlns:xlink="http://www.w3.org/1999/xlink" xmlns:shaper="http://www.shapertools.com/namespaces/shaper" shaper:fusionaddin="version:1.7.0" width="27.44cm" height="9.605cm" version="1.1" x="0cm" y="0cm" viewBox="0 0 27.44 9.605" enable-background="new 0 0 27.44 9.605" xml:space="preserve"><path d="M3.085,3.85 L-2.635,3.85 -2.635,4.1675 -4.6297843,4.1675 -4.6297843,4.485 -2.635,4.485 -2.635,4.8025 -8.635,4.8025 -8.635,4.485 -6.6297843,4.485 -6.6297843,4.1675 -8.635,4.1675 -8.635,3.85 -13.72,3.85 -13.72,-3.85 -13.085,-3.85 -13.085,-3.65 -8.635,-3.65 -8.635,-4.1675 -6.6297843,-4.1675 -6.6297843,-4.485 -8.635,-4.485 -8.635,-4.8025 -2.635,-4.8025 -2.635,-4.485 -4.6297843,-4.485 -4.6297843,-4.1675 -2.635,-4.1675 -2.635,-3.85 3.085,-3.85 3.085,-3.0000037 13.72,-3.0000037 13.72,2.9999963 3.085,2.9999963 3.085,3.85z" transform="matrix(1,0,0,-1,13.72,4.8025)" fill="rgb(0,0,0)" stroke-linecap="round" stroke-linejoin="round" /><path d="M3.085,-2.0000037 L3.085,1.9999963 3.4025,1.9999963 3.4025,0.9999963 3.72,0.9999963 3.72,-1.0000037 3.4025,-1.0000037 3.4025,-2.0000037 3.085,-2.0000037z" transform="matrix(1,0,0,-1,13.72,4.8025)" fill="rgb(255,255,255)" stroke="rgb(0,0,0)" stroke-width="0.0010cm" stroke-linecap="round" stroke-linejoin="round" /><path d="M2.45,1.5 L2.7675,1.5 2.7675,-1.5 2.45,-1.5 2.45,1.5z" transform="matrix(1,0,0,-1,13.72,4.8025)" fill="rgb(255,255,255)" stroke="rgb(0,0,0)" stroke-width="0.0010cm" stroke-linecap="round" stroke-linejoin="round" /><path d="M-13.085,-2.25 L-13.4025,-2.25 -13.4025,2.25 -13.085,2.25 -13.085,-2.25z" transform="matrix(1,0,0,-1,13.72,4.8025)" fill="rgb(255,255,255)" stroke="rgb(0,0,0)" stroke-width="0.0010cm" stroke-linecap="round" stroke-linejoin="round" /><path d="M-6.55,1.81 A0.5,0.5 90 0,1 -7.05,1.31 L-7.05,-1.5772063 -11.05,-1.5772063 -11.05,2.6227937 -7.55,2.6227937 A0.5,0.5 270 0,1 -7.05,3.1227937 L-7.05,3.535 1.2,3.535 1.2,1.81 -6.55,1.81z" transform="matrix(1,0,0,-1,13.72,4.8025)" fill="rgb(255,255,255)" stroke="rgb(0,0,0)" stroke-width="0.0010cm" stroke-linecap="round" stroke-linejoin="round" /></svg>