<?xml version="1.0" encoding="utf-8"?>
<!-- Generator: Fusion 360, Shaper Origin Export Add-In, Version 1.7.0  -->
<svg xmlns="http://www.w3.org/2000/svg" xmlns:xlink="http://www.w3.org/1999/xlink" xmlns:shaper="http://www.shapertools.com/namespaces/shaper" shaper:fusionaddin="version:1.7.0" width="9.605cm" height="16.805cm" version="1.1" x="0cm" y="0cm" viewBox="0 0 9.605 16.805" enable-background="new 0 0 9.605 16.805" xml:space="preserve"><path d="M3.85,-8.4025 L-3.85,-8.4025 -3.85,-2.6825 -4.1675,-2.6825 -4.1675,-1.6893941 -4.485,-1.6893941 -4.485,-2.6825 -4.8025,-2.6825 -4.8025,3.3175 -4.485,3.3175 -4.485,2.3175 -4.1675,2.3175 -4.1675,3.3175 -3.85,3.3175 -3.85,8.4025 3.85,8.4025 3.85,3.3175 4.1675,3.3175 4.1675,2.3175 4.485,2.3175 4.485,3.3175 4.8025,3.3175 4.8025,-2.6825 4.485,-2.6825 4.485,-1.6893941 4.1675,-1.6893941 4.1675,-2.6825 3.85,-2.6825 3.85,-8.4025z" transform="matrix(1,0,0,-1,4.8025,8.4025)" fill="rgb(0,0,0)" stroke-linecap="round" stroke-linejoin="round" /><path d="M1.5,-7.7675 L1.5,-8.085 -1.5,-8.085 -1.5,-7.7675 1.5,-7.7675z" transform="matrix(1,0,0,-1,4.8025,8.4025)" fill="rgb(255,255,255)" stroke="rgb(0,0,0)" stroke-width="0.0010cm" stroke-linecap="round" stroke-linejoin="round" /><path d="M-1.15,-5.2325 L-1.15,-3.5725 1.71,-3.5725 1.71,-5.2325 -1.15,-5.2325z" transform="matrix(1,0,0,-1,4.8025,8.4025)" fill="rgb(255,255,255)" stroke="rgb(0,0,0)" stroke-width="0.0010cm" stroke-linecap="round" stroke-linejoin="round" /><path d="M2.25,7.7675 L-2.25,7.7675 -2.25,8.085 2.25,8.085 2.25,7.7675z" transform="matrix(1,0,0,-1,4.8025,8.4025)" fill="rgb(255,255,255)" stroke="rgb(0,0,0)" stroke-width="0.0010cm" stroke-linecap="round" stroke-linejoin="round" /></svg>