<?xml version="1.0" encoding="utf-8"?>
<!-- Generator: Fusion 360, Shaper Origin Export Add-In, Version 1.7.0  -->
<svg xmlns="http://www.w3.org/2000/svg" xmlns:xlink="http://www.w3.org/1999/xlink" xmlns:shaper="http://www.shapertools.com/namespaces/shaper" shaper:fusionaddin="version:1.7.0" width="19.97cm" height="16.805cm" version="1.1" x="0cm" y="0cm" viewBox="0 0 19.97 16.805" enable-background="new 0 0 19.97 16.805" xml:space="preserve"><path d="M-9.985,8.4025 L-9.985,-8.4025 9.985,-8.4025 9.985,8.4025 -9.985,8.4025z" transform="matrix(1,0,0,-1,9.985,8.4025)" fill="rgb(0,0,0)" stroke-linecap="round" stroke-linejoin="round" /><path d="M-9.35,7.7675 L-9.35,8.085 -4.35,8.085 -4.35,7.7675 -9.35,7.7675z" transform="matrix(1,0,0,-1,9.985,8.4025)" fill="rgb(255,255,255)" stroke="rgb(0,0,0)" stroke-width="0.0010cm" stroke-linecap="round" stroke-linejoin="round" /><path d="M4.35,7.7675 L4.35,8.085 9.35,8.085 9.35,7.7675 4.35,7.7675z" transform="matrix(1,0,0,-1,9.985,8.4025)" fill="rgb(255,255,255)" stroke="rgb(0,0,0)" stroke-width="0.0010cm" stroke-linecap="round" stroke-linejoin="round" /><path d="M-8.35,5.1325 a1,1 0 1,1 2,0 a1,1 0 1,1 -2,0z" transform="matrix(1,0,0,-1,9.985,8.4025)" fill="rgb(255,255,255)" stroke="rgb(0,0,0)" stroke-width="0.0010cm" stroke-linecap="round" stroke-linejoin="round" /><path d="M6.35,5.1325 a1,1 0 1,1 2,0 a1,1 0 1,1 -2,0z" transform="matrix(1,0,0,-1,9.985,8.4025)" fill="rgb(255,255,255)" stroke="rgb(0,0,0)" stroke-width="0.0010cm" stroke-linecap="round" stroke-linejoin="round" /><path d="M-8.35,-4.8675 a1,1 0 1,1 2,0 a1,1 0 1,1 -2,0z" transform="matrix(1,0,0,-1,9.985,8.4025)" fill="rgb(255,255,255)" stroke="rgb(0,0,0)" stroke-width="0.0010cm" stroke-linecap="round" stroke-linejoin="round" /><path d="M6.35,-4.8675 a1,1 0 1,1 2,0 a1,1 0 1,1 -2,0z" transform="matrix(1,0,0,-1,9.985,8.4025)" fill="rgb(255,255,255)" stroke="rgb(0,0,0)" stroke-width="0.0010cm" stroke-linecap="round" stroke-linejoin="round" /><path d="M-9.35,-3.3175 L-9.6675,-3.3175 -9.6675,2.6825 -9.35,2.6825 -9.35,-3.3175z" transform="matrix(1,0,0,-1,9.985,8.4025)" fill="rgb(255,255,255)" stroke="rgb(0,0,0)" stroke-width="0.0010cm" stroke-linecap="round" stroke-linejoin="round" /><path d="M9.6675,-3.3175 L9.35,-3.3175 9.35,2.6825 9.6675,2.6825 9.6675,-3.3175z" transform="matrix(1,0,0,-1,9.985,8.4025)" fill="rgb(255,255,255)" stroke="rgb(0,0,0)" stroke-width="0.0010cm" stroke-linecap="round" stroke-linejoin="round" /><path d="M-1.25,-7.7675 L1.25,-7.7675 1.25,-8.085 -1.25,-8.085 -1.25,-7.7675z" transform="matrix(1,0,0,-1,9.985,8.4025)" fill="rgb(255,255,255)" stroke="rgb(0,0,0)" stroke-width="0.0010cm" stroke-linecap="round" stroke-linejoin="round" /><path d="M-9.35,-7.7675 L-6.35,-7.7675 -6.35,-8.085 -9.35,-8.085 -9.35,-7.7675z" transform="matrix(1,0,0,-1,9.985,8.4025)" fill="rgb(255,255,255)" stroke="rgb(0,0,0)" stroke-width="0.0010cm" stroke-linecap="round" stroke-linejoin="round" /><path d="M2.77,-7.7675 L6.77,-7.7675 6.77,-8.085 2.77,-8.085 2.77,-7.7675z" transform="matrix(1,0,0,-1,9.985,8.4025)" fill="rgb(255,255,255)" stroke="rgb(0,0,0)" stroke-width="0.0010cm" stroke-linecap="round" stroke-linejoin="round" /></svg>