<?xml version="1.0" encoding="utf-8"?>
<!-- Generator: Fusion 360, Shaper Origin Export Add-In, Version 1.7.0  -->
<svg xmlns="http://www.w3.org/2000/svg" xmlns:xlink="http://www.w3.org/1999/xlink" xmlns:shaper="http://www.shapertools.com/namespaces/shaper" shaper:fusionaddin="version:1.7.0" width="11.905cm" height="7cm" version="1.1" x="0cm" y="0cm" viewBox="0 0 11.905 7" enable-background="new 0 0 11.905 7" xml:space="preserve"><path d="M-4.0475,1 L-4.0475,-1 -4.365,-1 -4.365,-2 -4.6825,-2 -4.6825,-1 -5,-1 -5,-1.4999963 -5.3175,-1.4999963 -5.3175,-1.9999963 -5.635,-1.9999963 -5.635,-1.4999963 -5.9525,-1.4999963 -5.9525,-2.5 -5.3175,-2.5 -5.3175,-2.5000037 -5,-2.5000037 -5,-3 -4.0475,-3 -4.0475,-3.5 5.9525,-3.5 5.9525,3.5 -4.0475,3.5 -4.0475,3 -5,3 -5,2.5000037 -5.3175,2.5000037 -5.3175,2.5 -5.9525,2.5 -5.9525,1.4999963 -5.635,1.4999963 -5.635,1.9999963 -5.3175,1.9999963 -5.3175,1.4999963 -5,1.4999963 -5,1 -4.6825,1 -4.6825,2 -4.365,2 -4.365,1 -4.0475,1z" transform="matrix(1,0,0,-1,5.9525,3.5)" fill="rgb(0,0,0)" stroke-linecap="round" stroke-linejoin="round" /></svg>