<?xml version="1.0" encoding="utf-8"?>
<!-- Generator: Fusion 360, Shaper Origin Export Add-In, Version 1.7.0  -->
<svg xmlns="http://www.w3.org/2000/svg" xmlns:xlink="http://www.w3.org/1999/xlink" xmlns:shaper="http://www.shapertools.com/namespaces/shaper" shaper:fusionaddin="version:1.7.0" width="19.97cm" height="16.805cm" version="1.1" x="0cm" y="0cm" viewBox="0 0 19.97 16.805" enable-background="new 0 0 19.97 16.805" xml:space="preserve"><path d="M9.985,-8.4025 L9.985,8.4025 -9.985,8.4025 -9.985,-8.4025 9.985,-8.4025z" transform="matrix(1,0,0,-1,9.985,8.4025)" fill="rgb(0,0,0)" stroke-linecap="round" stroke-linejoin="round" /><path d="M9.35,7.7675 L4.35,7.7675 4.35,8.085 9.35,8.085 9.35,7.7675z" transform="matrix(1,0,0,-1,9.985,8.4025)" fill="rgb(255,255,255)" stroke="rgb(0,0,0)" stroke-width="0.0010cm" stroke-linecap="round" stroke-linejoin="round" /><path d="M-4.35,7.7675 L-9.35,7.7675 -9.35,8.085 -4.35,8.085 -4.35,7.7675z" transform="matrix(1,0,0,-1,9.985,8.4025)" fill="rgb(255,255,255)" stroke="rgb(0,0,0)" stroke-width="0.0010cm" stroke-linecap="round" stroke-linejoin="round" /><path d="M-3.12,-4.1175 L-3.12,-7.1175 -6.62,-7.1175 -6.62,-4.1175 -3.12,-4.1175z" transform="matrix(1,0,0,-1,9.985,8.4025)" fill="rgb(255,255,255)" stroke="rgb(0,0,0)" stroke-width="0.0010cm" stroke-linecap="round" stroke-linejoin="round" /><path d="M-8.4,2.0825 L-8.4,5.5825 -1.9,5.5825 -1.9,2.0825 -8.4,2.0825z" transform="matrix(1,0,0,-1,9.985,8.4025)" fill="rgb(255,255,255)" stroke="rgb(0,0,0)" stroke-width="0.0010cm" stroke-linecap="round" stroke-linejoin="round" /><path d="M9.35,-7.7675 L9.35,-8.085 6.35,-8.085 6.35,-7.7675 9.35,-7.7675z" transform="matrix(1,0,0,-1,9.985,8.4025)" fill="rgb(255,255,255)" stroke="rgb(0,0,0)" stroke-width="0.0010cm" stroke-linecap="round" stroke-linejoin="round" /><path d="M1.25,-7.7675 L1.25,-8.085 -1.25,-8.085 -1.25,-7.7675 1.25,-7.7675z" transform="matrix(1,0,0,-1,9.985,8.4025)" fill="rgb(255,255,255)" stroke="rgb(0,0,0)" stroke-width="0.0010cm" stroke-linecap="round" stroke-linejoin="round" /><path d="M-2.77,-7.7675 L-2.77,-8.085 -6.77,-8.085 -6.77,-7.7675 -2.77,-7.7675z" transform="matrix(1,0,0,-1,9.985,8.4025)" fill="rgb(255,255,255)" stroke="rgb(0,0,0)" stroke-width="0.0010cm" stroke-linecap="round" stroke-linejoin="round" /><path d="M9.6675,-3.3175 L9.35,-3.3175 9.35,2.6825 9.6675,2.6825 9.6675,-3.3175z" transform="matrix(1,0,0,-1,9.985,8.4025)" fill="rgb(255,255,255)" stroke="rgb(0,0,0)" stroke-width="0.0010cm" stroke-linecap="round" stroke-linejoin="round" /><path d="M-9.35,-3.3175 L-9.6675,-3.3175 -9.6675,2.6825 -9.35,2.6825 -9.35,-3.3175z" transform="matrix(1,0,0,-1,9.985,8.4025)" fill="rgb(255,255,255)" stroke="rgb(0,0,0)" stroke-width="0.0010cm" stroke-linecap="round" stroke-linejoin="round" /></svg>